<svg version="1.1" id="Layer_1" xmlns="http://www.w3.org/2000/svg" xmlns:xlink="http://www.w3.org/1999/xlink" x="0px" y="0px" width="100%" viewBox="0 0 697 201" enable-background="new 0 0 697 201" xml:space="preserve">
<path fill="none" opacity="1.000000" stroke="#f8f4e7" stroke-linecap="round" stroke-linejoin="round" stroke-width="7.000000"
	d="
M503.000000,99.000000 
	C518.356140,107.155380 527.276733,120.359406 532.582153,136.472961 
	C532.875244,137.363190 532.779541,138.181625 533.008301,138.997665 
	C534.778015,145.310532 534.793152,145.317810 533.498291,146.498123 
	C530.581238,149.157150 527.135132,148.352020 524.021790,147.426682 
	C514.945618,144.729034 508.850250,138.166168 504.109955,130.432617 
	C501.959869,126.924858 500.034607,123.209427 498.768860,119.070694 
	C497.610565,115.283401 497.354309,112.234383 499.500000,109.000000 
"/>
<path fill="none" opacity="1.000000" stroke="#f8f4e7" stroke-linecap="round" stroke-linejoin="round" stroke-width="7.000000"
	d="
M254.500000,58.000000 
	C255.833328,58.166668 257.459686,57.896790 258.455994,58.565559 
	C273.126465,68.413025 286.718414,79.350174 292.429596,97.022751 
	C294.971375,104.888023 296.734650,112.969086 292.527466,121.014359 
	C290.703217,124.502777 288.847961,127.930611 284.972076,129.427689 
	C283.879272,129.849777 282.839172,130.150314 281.995728,130.995728 
	C272.812592,140.200058 263.442810,149.213821 255.939545,159.957779 
	C253.289658,163.752167 253.012344,165.782608 259.004181,167.485229 
	C263.843262,168.860306 268.808807,168.059204 272.924225,165.858307 
	C283.281952,160.319046 291.874054,152.730164 295.427826,140.978180 
	C296.900269,136.108978 297.581635,130.997330 293.000000,127.000000 
"/>
<path fill="none" opacity="1.000000" stroke="#f8f4e7" stroke-linecap="round" stroke-linejoin="round" stroke-width="7.000000"
	d="
M434.000000,57.500000 
	C428.499725,57.102032 425.329346,61.352608 421.557678,64.079781 
	C409.740875,72.624100 400.207245,83.016289 395.956360,97.487183 
	C393.759369,104.966225 393.139099,112.407188 395.008331,119.997955 
	C395.716766,122.874931 397.769196,125.611588 400.060486,126.298096 
	C407.485718,128.522827 411.536438,134.597855 416.400604,139.596725 
	C421.995544,145.346664 426.956757,151.736679 431.914520,158.066940 
	C433.177155,159.679153 435.281036,161.327347 434.500000,164.000000 
"/>
<path fill="none" opacity="1.000000" stroke="#f8f4e7" stroke-linecap="round" stroke-linejoin="round" stroke-width="7.000000"
	d="
M495.500000,53.500000 
	C493.782288,53.156319 491.975647,53.210567 490.524200,54.042217 
	C476.395905,62.137352 463.301453,71.587608 455.152191,86.085548 
	C451.802582,92.044655 448.732697,98.599838 450.000000,106.000000 
"/>
<path fill="none" opacity="1.000000" stroke="#f8f4e7" stroke-linecap="round" stroke-linejoin="round" stroke-width="7.000000"
	d="
M193.000000,53.500000 
	C198.753052,53.326767 202.682846,57.330170 206.925751,60.113194 
	C219.742661,68.520149 230.993530,78.564796 236.447510,93.519142 
	C237.954178,97.650307 240.289658,101.844788 238.000000,106.500000 
"/>
<path fill="none" opacity="1.000000" stroke="#f8f4e7" stroke-linecap="round" stroke-linejoin="round" stroke-width="7.000000"
	d="
M571.000000,43.000000 
	C567.565430,44.850929 563.630127,44.364590 559.919128,45.789280 
	C542.922180,52.314529 529.980103,62.903610 521.859680,79.431061 
	C520.112671,82.986694 520.849731,85.666664 522.000000,88.750000 
"/>
<path fill="none" opacity="1.000000" stroke="#f8f4e7" stroke-linecap="round" stroke-linejoin="round" stroke-width="7.000000"
	d="
M69.500000,106.000000 
	C66.047470,103.782799 62.922436,104.322296 59.450233,106.417526 
	C54.569038,109.362961 49.925617,112.247414 48.997528,118.497833 
	C58.959194,123.274353 70.754486,120.173439 77.502151,113.502174 
	C79.682350,111.346657 79.693924,111.358368 79.499710,104.999260 
	C74.670502,103.954239 70.221870,103.794739 67.945473,109.478157 
	C67.680725,110.139137 66.666664,110.499992 65.999992,110.999992 
"/>
<path fill="none" opacity="1.000000" stroke="#f8f4e7" stroke-linecap="round" stroke-linejoin="round" stroke-width="7.000000"
	d="
M119.000000,44.500000 
	C128.315491,44.372654 135.947296,49.142876 143.425934,53.623623 
	C153.196823,59.477753 160.539062,67.981613 165.969208,78.016663 
	C167.806152,81.411415 168.407547,85.000000 166.000000,88.500000 
"/>
<path fill="none" opacity="1.000000" stroke="#f8f4e7" stroke-linecap="round" stroke-linejoin="round" stroke-width="7.000000"
	d="
M284.000000,116.500000 
	C278.274872,119.881119 272.984894,116.052422 267.502563,115.475739 
	C265.819458,115.298706 264.176025,114.612808 262.498230,114.541519 
	C257.548462,114.331215 255.932281,116.685539 257.490936,121.502930 
	C258.186340,123.652252 258.405487,125.815117 257.507202,128.002960 
	C251.669724,142.221024 241.910675,153.351822 229.386612,161.832535 
	C224.359390,165.236740 218.080963,167.000153 212.193939,163.423798 
	C212.767014,158.241501 215.520035,154.406113 218.035141,150.522751 
	C224.493286,140.551254 230.553589,130.323288 237.895370,120.918320 
	C240.256088,117.894188 243.455826,115.851852 245.753357,112.683739 
	C247.355667,110.474304 251.247284,112.194298 253.977051,113.071434 
	C255.277237,113.489227 256.333344,114.666664 257.500000,115.500000 
"/>
<path fill="none" opacity="1.000000" stroke="#f8f4e7" stroke-linecap="round" stroke-linejoin="round" stroke-width="7.000000"
	d="
M190.000000,109.500000 
	C192.896988,117.155991 188.750977,123.282585 185.457413,129.477356 
	C180.613007,138.589172 173.579773,145.296417 163.527283,148.583435 
	C161.937881,149.103165 160.444244,149.100510 159.008179,148.930771 
	C154.542328,148.402908 153.893555,146.666702 154.941757,141.986954 
	C157.663193,129.837006 163.256332,119.298225 171.441086,109.948418 
	C175.066177,105.807297 180.416885,104.062782 184.000000,100.000000 
"/>
<path fill="none" opacity="1.000000" stroke="#f8f4e7" stroke-linecap="round" stroke-linejoin="round" stroke-width="7.000000"
	d="
M405.000000,115.500000 
	C409.043976,118.734268 413.407715,116.561005 417.472015,115.841835 
	C420.465942,115.312073 423.338562,114.036308 426.499481,113.974098 
	C430.728912,113.890854 433.559937,116.477364 431.824890,119.911537 
	C429.403076,124.705177 431.140778,128.895905 433.167145,132.403442 
	C439.073914,142.627609 446.211151,151.988403 455.985687,159.019913 
	C461.936584,163.300797 468.112274,165.785614 475.529297,163.080307 
	C476.652435,162.670654 478.166656,163.333328 479.500000,163.500000 
"/>
<path fill="none" opacity="1.000000" stroke="#f8f4e7" stroke-linecap="round" stroke-linejoin="round" stroke-width="7.000000"
	d="
M611.000000,69.500000 
	C609.745728,67.423363 607.582275,66.165344 605.497498,66.123062 
	C600.134583,66.014290 594.919250,64.559502 589.495300,64.931709 
	C581.669861,65.468735 572.157898,72.431595 569.471924,79.990021 
	C568.914490,81.558708 568.808899,82.973595 569.487366,84.505608 
	C570.835205,87.548973 569.481628,88.646614 566.499756,88.504646 
	C565.834595,88.472977 565.117432,88.338531 564.507507,88.524597 
	C557.166626,90.763962 556.366882,90.945648 558.131836,98.469078 
	C559.225098,103.129143 561.286255,107.481339 560.560425,112.508720 
	C559.959534,116.670830 563.501953,119.055199 565.562866,121.955322 
	C568.359009,125.890060 571.552429,129.565552 576.443665,131.021439 
	C581.051636,127.506454 578.670044,122.734093 577.768616,119.056725 
	C575.882690,111.363449 573.547668,103.653694 569.890015,96.556686 
	C568.574280,94.003761 568.616211,91.576759 568.500000,89.000000 
"/>
<path fill="none" opacity="1.000000" stroke="#f8f4e7" stroke-linecap="round" stroke-linejoin="round" stroke-width="7.000000"
	d="
M131.000000,92.500000 
	C127.553352,89.506615 123.155418,89.367081 119.115242,88.731880 
	C118.833031,88.166817 118.435097,87.723564 118.533630,87.515961 
	C121.501068,81.263756 117.582344,77.069595 113.947975,73.047005 
	C109.758072,68.409531 104.661736,65.472832 97.996445,65.950417 
	C92.999352,66.308472 87.987877,65.802132 82.970886,66.862221 
	C80.597374,67.363747 78.951271,68.299561 77.500000,70.000000 
"/>
<path fill="none" opacity="1.000000" stroke="#f8f4e7" stroke-linecap="round" stroke-linejoin="round" stroke-width="7.000000"
	d="
M251.750000,54.500000 
	C255.433029,57.095673 252.539627,60.854141 253.401276,64.026810 
	C256.702423,76.181984 262.806702,86.910172 270.129578,96.905060 
	C273.212494,101.112869 275.112427,106.856087 281.462463,108.179977 
	C282.560822,108.408951 283.883453,111.007530 283.867798,112.498611 
	C283.817566,117.279289 287.194183,119.650146 290.000000,122.500000 
"/>
<path fill="none" opacity="1.000000" stroke="#f8f4e7" stroke-linecap="round" stroke-linejoin="round" stroke-width="7.000000"
	d="
M431.000000,114.500000 
	C436.320129,110.315071 439.513031,110.808983 444.576416,114.392006 
	C453.701324,120.849113 457.646027,131.059280 463.933502,139.549240 
	C467.307739,144.105423 469.936951,149.207443 473.024994,153.983856 
	C474.733612,156.626648 476.125488,159.340485 476.500000,162.500000 
"/>
<path fill="none" opacity="1.000000" stroke="#f8f4e7" stroke-linecap="round" stroke-linejoin="round" stroke-width="7.000000"
	d="
M436.500000,52.500000 
	C433.619629,57.336502 435.992737,62.971436 434.045471,68.017548 
	C430.025848,78.434044 424.733551,88.134781 417.938568,96.952660 
	C414.996979,100.769943 413.396484,106.017273 407.529083,107.150505 
	C406.115204,107.423592 405.091156,109.767151 405.064301,111.500992 
	C404.993073,116.102379 402.088745,118.819908 399.000000,121.500000 
"/>
<path fill="none" opacity="1.000000" stroke="#f8f4e7" stroke-linecap="round" stroke-linejoin="round" stroke-width="7.000000"
	d="
M395.000000,127.500000 
	C389.674927,131.834183 391.756622,137.438385 393.682465,141.921631 
	C398.850281,153.951920 407.188934,163.050629 420.494141,166.522461 
	C426.087555,167.981979 431.148621,166.788177 436.000000,164.000000 
"/>
<path fill="none" opacity="1.000000" stroke="#f8f4e7" stroke-linecap="round" stroke-linejoin="round" stroke-width="7.000000"
	d="
M188.000000,49.000000 
	C193.772354,54.838566 193.609589,63.417904 197.868408,70.084068 
	C203.321198,78.619057 206.937027,88.340157 214.511047,95.488297 
	C215.987473,96.881706 216.139648,98.710808 216.500000,100.500000 
"/>
<path fill="none" opacity="1.000000" stroke="#f8f4e7" stroke-linecap="round" stroke-linejoin="round" stroke-width="7.000000"
	d="
M501.000000,48.000000 
	C497.112061,51.058311 497.013489,55.816177 495.322388,59.926937 
	C492.470184,66.860107 488.603699,73.390564 484.966400,79.981453 
	C482.187592,85.016708 479.199768,89.969879 474.974060,93.972618 
	C473.327942,95.531898 472.778107,97.414299 472.500000,99.500000 
"/>
<path fill="none" opacity="1.000000" stroke="#f8f4e7" stroke-linecap="round" stroke-linejoin="round" stroke-width="7.000000"
	d="
M116.500000,43.500000 
	C117.069115,43.729660 117.971748,43.606239 117.984673,44.500221 
	C118.115776,53.569702 123.262177,60.443428 127.999260,67.500496 
	C131.882324,73.285286 136.517563,78.345596 142.517990,81.970230 
	C145.835297,83.974098 146.553207,88.691528 150.989716,89.552933 
	C154.872314,90.306793 158.682907,91.418663 162.493652,89.487465 
	C164.632614,88.403488 166.275009,89.091438 168.026108,90.466751 
	C170.774963,92.625740 173.695190,94.198174 177.502457,94.120087 
	C180.120102,94.066399 182.495117,95.511215 184.558289,97.437569 
	C186.108398,98.884872 188.876480,100.156219 190.409286,99.331413 
	C195.921936,96.365036 200.934357,99.347786 205.959686,100.229706 
	C208.845947,100.736229 211.751450,100.465645 214.473694,101.110992 
	C219.500000,102.302544 225.123016,100.977013 229.573944,104.916466 
	C231.108994,106.275108 233.542938,107.448189 235.491272,107.341133 
	C239.863770,107.100899 242.722794,109.264168 245.500000,112.000000 
"/>
<path fill="none" opacity="1.000000" stroke="#f8f4e7" stroke-linecap="round" stroke-linejoin="round" stroke-width="7.000000"
	d="
M570.000000,44.500000 
	C571.184021,50.305202 567.934814,54.853794 565.431091,59.462559 
	C561.424988,66.836678 555.901184,73.004311 549.598572,78.610832 
	C546.746216,81.148163 542.844421,83.120377 542.000000,87.500000 
"/>
<path fill="none" opacity="1.000000" stroke="#f8f4e7" stroke-linecap="round" stroke-linejoin="round" stroke-width="7.000000"
	d="
M119.500000,89.500000 
	C120.460197,95.258545 117.437477,99.990639 115.497421,104.999001 
	C112.684418,112.260963 110.512146,119.666283 109.951263,127.496506 
	C109.828369,129.212173 109.299728,130.901459 111.509857,131.461075 
	C112.910286,131.815643 114.317032,131.764755 115.519768,130.519089 
	C119.636871,126.254951 124.221771,122.435135 127.079872,117.042328 
	C127.788925,115.704475 128.818451,114.465446 128.452591,113.011932 
	C126.699104,106.045494 130.940079,100.083267 131.665558,93.518295 
	C131.983917,90.637505 135.339294,89.888596 137.994247,90.079895 
	C141.369431,90.323090 144.312485,89.341042 147.250000,88.000000 
"/>
<path fill="none" opacity="1.000000" stroke="#f8f4e7" stroke-linecap="round" stroke-linejoin="round" stroke-width="7.000000"
	d="
M331.500000,118.500000 
	C331.448212,119.825226 331.231476,120.574440 329.530945,121.100082 
	C321.297028,123.645164 312.784058,123.652946 304.540192,122.664764 
	C300.571747,122.189072 296.812469,123.146378 293.000000,122.500000 
"/>
<path fill="none" opacity="1.000000" stroke="#f8f4e7" stroke-linecap="round" stroke-linejoin="round" stroke-width="7.000000"
	d="
M570.500000,87.000000 
	C575.440491,87.178474 579.714111,89.358253 583.999878,91.500290 
	C590.667053,94.832588 597.223572,98.420082 604.052734,101.378227 
	C606.877502,102.601791 609.048950,103.332092 608.552246,107.007065 
	C608.153381,109.958817 609.489136,112.283844 611.989380,114.015320 
	C620.432129,119.862160 629.347046,122.464073 639.211365,117.916214 
	C640.146057,117.485275 640.012939,118.518776 640.500000,118.250000 
"/>
<path fill="none" opacity="1.000000" stroke="#f8f4e7" stroke-linecap="round" stroke-linejoin="round" stroke-width="7.000000"
	d="
M395.000000,121.500000 
	C386.480988,120.696938 378.051727,122.904625 369.488739,122.123581 
	C365.542084,121.763603 361.737854,121.215645 358.000000,120.000000 
"/>
<path fill="none" opacity="1.000000" stroke="#f8f4e7" stroke-linecap="round" stroke-linejoin="round" stroke-width="7.000000"
	d="
M615.000000,68.000000 
	C612.279785,68.700462 610.379272,70.556557 608.488525,72.488777 
	C602.954773,78.144028 595.762573,81.276505 588.945618,84.897598 
	C586.434570,86.231400 584.089417,87.620552 582.000000,89.500000 
"/>
<path fill="none" opacity="1.000000" stroke="#f8f4e7" stroke-linecap="round" stroke-linejoin="round" stroke-width="7.000000"
	d="
M71.500000,68.500000 
	C74.691544,68.536682 76.788422,70.146553 79.114372,72.380943 
	C84.717522,77.763504 91.722809,81.265373 98.498611,85.002518 
	C99.675095,85.651390 101.010605,86.142876 101.968201,87.034164 
	C105.443840,90.269150 108.972038,91.172531 113.020233,88.026031 
	C114.480324,86.891182 116.336380,87.697151 118.000000,87.500000 
"/>
<path fill="none" opacity="1.000000" stroke="#f8f4e7" stroke-linecap="round" stroke-linejoin="round" stroke-width="7.000000"
	d="
M432.500000,119.500000 
	C434.443756,119.834358 435.819153,120.981606 437.009338,122.492638 
	C443.322876,130.508255 449.621887,138.536545 456.071838,146.441376 
	C456.691803,147.201172 456.301544,147.477524 456.250000,148.000000 
"/>
<path fill="none" opacity="1.000000" stroke="#f8f4e7" stroke-linecap="round" stroke-linejoin="round" stroke-width="7.000000"
	d="
M256.000000,120.000000 
	C251.325272,121.991943 248.852341,126.359718 246.143799,130.104019 
	C241.811722,136.092712 236.797256,141.510269 232.500000,147.500000 
"/>
<path fill="none" opacity="1.000000" stroke="#f8f4e7" stroke-linecap="round" stroke-linejoin="round" stroke-width="7.000000"
	d="
M106.000000,90.500000 
	C104.513763,91.924423 103.111732,93.213760 101.056152,94.126465 
	C93.910789,97.299072 87.000000,100.999992 80.000000,104.499992 
"/>
<path fill="none" opacity="1.000000" stroke="#f8f4e7" stroke-linecap="round" stroke-linejoin="round" stroke-width="7.000000"
	d="
M287.000000,129.500000 
	C288.564880,134.425232 286.669189,138.572601 283.985809,142.490280 
	C281.763336,145.735031 279.291016,148.859451 277.202911,152.129578 
	C275.786591,154.347656 274.443726,154.465363 272.500000,154.500000 
"/>
<path fill="none" opacity="1.000000" stroke="#f8f4e7" stroke-linecap="round" stroke-linejoin="round" stroke-width="7.000000"
	d="
M400.500000,127.500000 
	C400.241211,138.697372 406.994720,146.288437 414.000000,153.750000 
"/>
<path fill="none" opacity="1.000000" stroke="#f8f4e7" stroke-linecap="round" stroke-linejoin="round" stroke-width="7.000000"
	d="
M414.500000,80.500000 
	C413.726379,86.699303 409.619202,91.597412 407.873047,97.462204 
	C406.940887,100.593010 405.829529,103.397934 407.500000,106.500000 
"/>
<path fill="none" opacity="1.000000" stroke="#f8f4e7" stroke-linecap="round" stroke-linejoin="round" stroke-width="7.000000"
	d="
M499.000000,99.500000 
	C495.784515,97.008354 491.718048,97.111320 488.567139,98.195152 
	C480.817444,100.860817 472.808716,99.794456 464.985962,100.900719 
	C463.389648,101.126465 462.012024,101.501259 461.039948,102.537476 
	C458.418030,105.332382 455.376953,106.688210 451.498413,106.542618 
	C447.606293,106.396515 445.493042,109.820801 442.500000,111.500000 
"/>
<path fill="none" opacity="1.000000" stroke="#f8f4e7" stroke-linecap="round" stroke-linejoin="round" stroke-width="7.000000"
	d="
M163.000000,88.000000 
	C159.514038,82.265610 153.586243,78.666840 149.960251,73.025551 
	C148.362961,70.540504 146.279938,68.372551 144.524033,65.982346 
	C143.726944,64.897316 142.839081,64.321831 141.500000,64.500000 
"/>
<path fill="none" opacity="1.000000" stroke="#f8f4e7" stroke-linecap="round" stroke-linejoin="round" stroke-width="7.000000"
	d="
M273.500000,82.750000 
	C277.294159,88.206558 279.460297,94.463089 281.862518,100.554222 
	C282.649017,102.548531 282.936646,105.257378 281.500000,107.500000 
"/>
<path fill="none" opacity="1.000000" stroke="#f8f4e7" stroke-linecap="round" stroke-linejoin="round" stroke-width="7.000000"
	d="
M212.500000,76.500000 
	C215.249359,76.083969 215.127243,78.577263 215.982910,80.010201 
	C218.900375,84.895821 221.506744,89.963127 224.969543,94.523132 
	C226.618286,96.694260 227.078735,99.284256 226.500000,102.000000 
"/>
<path fill="none" opacity="1.000000" stroke="#f8f4e7" stroke-linecap="round" stroke-linejoin="round" stroke-width="7.000000"
	d="
M474.250000,75.000000 
	C472.694672,80.657066 469.055817,85.161026 466.036041,90.022385 
	C464.074310,93.180435 461.975433,96.438599 463.500000,100.500000 
"/>
<path fill="none" opacity="1.000000" stroke="#f8f4e7" stroke-linecap="round" stroke-linejoin="round" stroke-width="7.000000"
	d="
M545.000000,64.500000 
	C539.273804,73.133759 531.895691,80.432381 524.754639,87.760887 
	C521.255432,91.351952 515.586182,93.697624 509.996277,93.893829 
	C507.155365,93.993546 505.270477,95.141586 503.500000,97.000000 
"/>
<path fill="none" opacity="1.000000" stroke="#f8f4e7" stroke-linecap="round" stroke-linejoin="round" stroke-width="7.000000"
	d="
M639.000000,117.500000 
	C637.806213,109.065048 627.502869,102.367844 619.000000,104.500000 
"/>
<path fill="none" opacity="1.000000" stroke="#f8f4e7" stroke-linecap="round" stroke-linejoin="round" stroke-width="7.000000"
	d="
M189.500000,100.000000 
	C191.108002,104.245148 190.978088,107.377380 186.651199,110.697067 
	C181.068832,114.979950 178.339432,121.842102 175.000000,128.000000 
"/>
<path fill="none" opacity="1.000000" stroke="#f8f4e7" stroke-linecap="round" stroke-linejoin="round" stroke-width="7.000000"
	d="
M502.750000,97.000000 
	C502.368927,98.403091 500.932739,98.374207 500.045258,99.058693 
	C497.466156,101.047981 496.905884,106.783691 499.575104,108.373962 
	C506.164917,112.300072 508.446472,119.279381 512.502441,124.998253 
	C512.984375,125.677750 513.500000,126.333336 514.000000,127.000000 
"/>
<path fill="none" opacity="1.000000" stroke="#f8f4e7" stroke-linecap="round" stroke-linejoin="round" stroke-width="7.000000"
	d="
M587.000000,73.500000 
	C587.049622,75.490540 587.256958,77.323547 584.517273,78.064018 
	C579.781372,79.344048 576.392090,82.398621 574.500000,87.000000 
"/>
<path fill="none" opacity="1.000000" stroke="#f8f4e7" stroke-linecap="round" stroke-linejoin="round" stroke-width="8.000000"
	d="
M557.500000,91.500000 
	C549.503174,88.226364 541.378235,86.573013 533.014038,90.033951 
	C530.196838,91.199677 527.923645,89.905968 525.500000,89.000000 
"/>
<path fill="none" opacity="1.000000" stroke="#f8f4e7" stroke-linecap="round" stroke-linejoin="round" stroke-width="7.000000"
	d="
M99.500000,77.500000 
	C106.048126,78.199295 111.112694,80.975555 113.500000,87.500000 
"/>
</svg>