<svg xmlns="http://www.w3.org/2000/svg" height="12" width="12" viewBox="0 0 12 12">
    <title>star small</title>
    <g fill="#212121" class="nc-icon-wrapper">
        <path d="M11.37 4.55a0.5 0.5 0 0 0-0.41-0.35l-3.1-0.44-1.38-2.81c-0.17-0.34-0.73-0.34-0.9 0l-1.39 2.8-3.09 0.45a0.5 0.5 0 0 0-0.28 0.86l2.24 2.18-0.53 3.09a0.5 0.5 0 0 0 0.73 0.53l2.77-1.46 2.77 1.46a0.5 0.5 0 0 0 0.53-0.04 0.5 0.5 0 0 0 0.2-0.49l-0.53-3.09 2.24-2.18a0.5 0.5 0 0 0 0.12-0.51z" fill="#212121" class="nc-icon-wrapper"></path>
    </g>
</svg>